<svg width="17" height="17" viewBox="0 0 17 17" fill="none" xmlns="http://www.w3.org/2000/svg">
<path d="M7.7915 12.0417H4.95817C3.97831 12.0417 3.14307 11.6964 2.45244 11.0057C1.76182 10.3151 1.4165 9.47986 1.4165 8.5C1.4165 7.52014 1.76182 6.6849 2.45244 5.99427C3.14307 5.30365 3.97831 4.95834 4.95817 4.95834H7.7915V6.375H4.95817C4.36789 6.375 3.86616 6.5816 3.45296 6.99479C3.03977 7.40799 2.83317 7.90972 2.83317 8.5C2.83317 9.09028 3.03977 9.59202 3.45296 10.0052C3.86616 10.4184 4.36789 10.625 4.95817 10.625H7.7915V12.0417ZM5.6665 9.20834V7.79167H11.3332V9.20834H5.6665ZM9.20817 12.0417V10.625H12.0415C12.6318 10.625 13.1335 10.4184 13.5467 10.0052C13.9599 9.59202 14.1665 9.09028 14.1665 8.5C14.1665 7.90972 13.9599 7.40799 13.5467 6.99479C13.1335 6.5816 12.6318 6.375 12.0415 6.375H9.20817V4.95834H12.0415C13.0214 4.95834 13.8566 5.30365 14.5472 5.99427C15.2379 6.6849 15.5832 7.52014 15.5832 8.5C15.5832 9.47986 15.2379 10.3151 14.5472 11.0057C13.8566 11.6964 13.0214 12.0417 12.0415 12.0417H9.20817Z" fill="#1D1B20"/>
</svg>
