<svg width="62" height="62" viewBox="0 0 62 62" fill="none" xmlns="http://www.w3.org/2000/svg">
<g clip-path="url(#clip0_802_134)">
<path d="M28 38.0001C23 39.5001 23 35.5001 21 35.0001M35 41.0001V37.1301C35.0375 36.6532 34.9731 36.1739 34.811 35.7239C34.6489 35.2738 34.3929 34.8635 34.06 34.5201C37.2 34.1701 40.5 32.9801 40.5 27.5201C40.4997 26.1239 39.9627 24.7813 39 23.7701C39.4559 22.5486 39.4236 21.1984 38.91 20.0001C38.91 20.0001 37.73 19.6501 35 21.4801C32.708 20.8589 30.292 20.8589 28 21.4801C25.27 19.6501 24.09 20.0001 24.09 20.0001C23.5764 21.1984 23.5441 22.5486 24 23.7701C23.0301 24.7888 22.4925 26.1435 22.5 27.5501C22.5 32.9701 25.8 34.1601 28.94 34.5501C28.611 34.89 28.3573 35.2955 28.1953 35.74C28.0334 36.1845 27.9668 36.6581 28 37.1301V41.0001" stroke="#1E1E1E" stroke-width="2" stroke-linecap="round" stroke-linejoin="round"/>
</g>
<defs>
<clipPath id="clip0_802_134">
<rect width="24" height="24" fill="white" transform="translate(19 19)"/>
</clipPath>
</defs>
</svg>
