<svg width="56" height="16" viewBox="0 0 56 16" fill="none" xmlns="http://www.w3.org/2000/svg">
<path d="M55 9C55.5523 9 56 8.55228 56 8C56 7.44772 55.5523 7 55 7L55 8L55 9ZM0.292889 7.2929C-0.0976334 7.68342 -0.0976333 8.31659 0.292889 8.70711L6.65685 15.0711C7.04738 15.4616 7.68054 15.4616 8.07106 15.0711C8.46159 14.6805 8.46159 14.0474 8.07106 13.6569L2.41421 8L8.07106 2.34315C8.46159 1.95263 8.46159 1.31946 8.07106 0.928936C7.68054 0.538412 7.04737 0.538412 6.65685 0.928936L0.292889 7.2929ZM55 8L55 7L0.999996 7L0.999996 8L0.999996 9L55 9L55 8Z" fill="#8E8E8E"/>
</svg>
